<?xml version="1.0" standalone="no"?>
<!DOCTYPE svg PUBLIC "-//W3C//DTD SVG 20010904//EN"
 "http://www.w3.org/TR/2001/REC-SVG-20010904/DTD/svg10.dtd">
<svg version="1.0" xmlns="http://www.w3.org/2000/svg"
 width="700.000000pt" height="700.000000pt" viewBox="0 0 700.000000 700.000000"
 preserveAspectRatio="xMidYMid meet">
<metadata>
Created by potrace 1.14, written by Peter Selinger 2001-2017
</metadata>
<g transform="translate(0.000000,700.000000) scale(0.100000,-0.100000)"
fill="#000000" stroke="none">
<path d="M3278 6995 c-2 -1 -38 -5 -80 -9 -160 -13 -262 -29 -473 -77 -148
-33 -188 -58 -224 -139 -36 -80 -27 -117 129 -545 142 -390 244 -675 325 -900
74 -207 87 -229 160 -268 39 -21 51 -22 385 -22 338 0 346 0 387 22 23 13 53
38 68 57 21 28 93 204 125 307 4 14 29 84 55 155 26 71 58 161 72 199 14 39
36 99 49 135 12 36 50 139 83 230 32 91 78 217 101 280 92 251 96 288 45 375
-46 79 -104 101 -405 154 -58 10 -132 22 -165 26 -33 3 -73 8 -90 11 -33 5
-541 14 -547 9z"/>
<path d="M1775 6539 c-117 -60 -369 -235 -506 -349 -190 -159 -443 -420 -485
-500 -37 -73 -26 -177 28 -241 13 -15 163 -119 172 -119 4 0 218 -134 376
-235 52 -33 460 -288 588 -367 81 -50 109 -61 158 -60 70 0 126 28 204 102 36
33 99 86 140 118 90 68 105 84 131 140 23 48 27 108 11 150 -29 74 -314 790
-322 807 -5 11 -46 112 -91 225 -99 251 -104 262 -137 296 -70 70 -171 83
-267 33z"/>
<path d="M5024 6551 c-81 -37 -89 -53 -369 -753 -288 -720 -277 -685 -230
-783 19 -40 43 -65 112 -117 48 -37 117 -94 153 -127 68 -63 124 -97 175 -104
55 -8 119 18 258 106 76 48 140 87 142 87 2 0 36 22 77 48 40 27 80 52 88 56
8 3 42 24 75 46 33 21 94 60 135 85 41 25 153 95 249 155 96 61 177 110 180
110 15 1 118 90 138 119 26 39 38 104 28 161 -16 94 -340 429 -625 646 -94 72
-306 211 -384 253 -70 37 -138 41 -202 12z"/>
<path d="M430 5057 c-60 -19 -102 -73 -154 -198 -111 -264 -197 -565 -232
-809 -2 -19 -7 -45 -9 -57 -11 -49 -19 -153 -19 -250 -1 -97 0 -103 29 -144
19 -27 50 -54 84 -71 l53 -28 707 0 c666 0 708 1 746 19 76 35 119 101 130
200 8 69 37 197 69 304 40 134 33 196 -32 265 -39 42 -1160 749 -1223 771 -39
13 -102 13 -149 -2z"/>
<path d="M6403 5051 c-38 -18 -100 -56 -273 -166 -56 -36 -517 -323 -585 -365
-333 -204 -375 -237 -395 -312 -15 -55 -10 -102 27 -228 17 -58 36 -136 43
-175 27 -155 32 -174 57 -213 14 -22 45 -51 67 -64 l41 -23 725 0 725 0 45 25
c24 14 58 45 75 68 28 41 30 50 31 135 1 96 -15 249 -42 392 -14 76 -56 263
-64 285 -4 14 -18 59 -30 100 -50 167 -146 413 -186 473 -50 76 -173 108 -261
68z"/>
<path d="M3425 4588 c-44 -4 -91 -9 -105 -12 -14 -2 -28 -5 -32 -5 -3 -1 -6
-909 -6 -2018 0 -1655 2 -2024 13 -2050 24 -58 49 -66 206 -66 124 1 144 3
167 20 15 11 32 30 39 43 9 18 12 512 12 2046 l0 2023 -32 6 c-74 14 -187 20
-262 13z"/>
<path d="M2774 4366 c-127 -86 -236 -186 -319 -295 l-49 -64 0 -1746 c0 -1644
1 -1748 18 -1772 27 -43 65 -52 206 -52 144 1 179 12 202 67 9 23 12 448 12
1953 1 1058 -1 1930 -4 1937 -4 10 -22 2 -66 -28z"/>
<path d="M4158 4402 c-2 -4 -3 -878 -3 -1942 2 -1386 5 -1943 13 -1962 20 -49
62 -61 207 -61 148 0 184 11 205 64 11 26 14 355 14 1768 l1 1736 -47 60 c-61
79 -140 161 -208 217 -75 62 -178 130 -182 120z"/>
<path d="M158 3053 c-59 -17 -108 -60 -135 -119 l-24 -52 3 -489 c3 -457 4
-490 22 -523 25 -46 61 -79 112 -102 40 -17 81 -18 744 -18 683 1 703 1 741
21 57 29 105 84 118 135 16 61 15 953 0 1005 -16 53 -58 100 -114 128 l-47 24
-690 1 c-495 1 -702 -2 -730 -11z"/>
<path d="M5440 3057 c-90 -13 -155 -68 -180 -152 -8 -29 -10 -178 -8 -521 l3
-481 30 -48 c22 -36 45 -57 84 -77 l53 -28 692 0 c467 0 704 4 730 11 55 15
102 56 131 113 l24 48 1 477 c0 340 -3 487 -11 512 -18 52 -65 105 -114 129
-45 22 -49 22 -714 23 -367 1 -692 -1 -721 -6z"/>
<path d="M254 1310 c-100 -5 -116 -9 -153 -33 -22 -15 -53 -46 -68 -70 l-28
-42 0 -505 c0 -554 -2 -532 60 -595 64 -63 20 -60 799 -63 l710 -3 52 26 c55
27 97 77 114 136 15 49 13 955 -2 1002 -16 52 -60 101 -115 127 -48 22 -48 22
-653 24 -333 0 -655 -1 -716 -4z"/>
<path d="M5424 1304 c-64 -12 -119 -53 -148 -110 -20 -38 -21 -55 -23 -530
l-3 -490 25 -51 c27 -54 78 -97 136 -113 21 -6 305 -10 724 -10 l691 0 52 26
c56 28 107 93 117 148 4 17 5 247 3 511 -3 528 0 498 -68 563 -68 66 -36 64
-779 65 -444 1 -692 -2 -727 -9z"/>
</g>
</svg>
